HIERARCHY
ROOT Hips
{
    OFFSET 0.000000 0.000000 0.000000
    CHANNELS 6 Xposition Yposition Zposition Zrotation Xrotation Yrotation
    JOINT Spine
    {
        OFFSET -0.000000 7.236184 0.000000
        CHANNELS 3 Zrotation Xrotation Yrotation
        JOINT Spine1
        {
            OFFSET -0.000000 20.420147 0.000000
            CHANNELS 3 Zrotation Xrotation Yrotation
            JOINT Neck
            {
                OFFSET -0.000000 20.336288 1.848754
                CHANNELS 3 Zrotation Xrotation Yrotation
                JOINT Head
                {
                    OFFSET -0.000000 12.354461 -1.764923
                    CHANNELS 3 Zrotation Xrotation Yrotation
                    End Site
                    {
                        OFFSET -0.000000 22.061537 0.000000
                    }
                }
            }
            JOINT LeftShoulder
            {
                OFFSET 3.573296 18.396038 -0.314103
                CHANNELS 3 Zrotation Xrotation Yrotation
                JOINT LeftArm
                {
                    OFFSET 10.880760 0.000000 0.000000
                    CHANNELS 3 Zrotation Xrotation Yrotation
                    JOINT LeftForeArm
                    {
                        OFFSET 27.185530 0.000000 0.000000
                        CHANNELS 3 Zrotation Xrotation Yrotation
                        JOINT LeftHand
                        {
                            OFFSET 27.825975 0.000000 0.000000
                            CHANNELS 3 Zrotation Xrotation Yrotation
                            End Site
                            {
                                OFFSET 13.236923 0.000000 0.000000
                            }
                        }
                    }
                }
            }
            JOINT RightShoulder
            {
                OFFSET -3.474926 18.396038 -0.314103
                CHANNELS 3 Zrotation Xrotation Yrotation
                JOINT RightArm
                {
                    OFFSET -10.880760 0.000000 0.000000
                    CHANNELS 3 Zrotation Xrotation Yrotation
                    JOINT RightForeArm
                    {
                        OFFSET -27.185530 0.000000 0.000000
                        CHANNELS 3 Zrotation Xrotation Yrotation
                        JOINT RightHand
                        {
                            OFFSET -27.825975 0.000000 0.000000
                            CHANNELS 3 Zrotation Xrotation Yrotation
                            End Site
                            {
                                OFFSET -13.236923 0.000000 0.000000
                            }
                        }
                    }
                }
            }
        }
    }
    JOINT LeftUpLeg
    {
        OFFSET 8.824615 0.000000 0.000000
        CHANNELS 3 Zrotation Xrotation Yrotation
        JOINT LeftLeg
        {
            OFFSET -0.000000 -35.111282 0.000000
            CHANNELS 3 Zrotation Xrotation Yrotation
            JOINT LeftFoot
            {
                OFFSET -0.000000 -42.324711 0.000000
                CHANNELS 3 Zrotation Xrotation Yrotation
                JOINT LeftToeBase
                {
                    OFFSET -0.000000 -5.735999 13.236923
                    CHANNELS 3 Zrotation Xrotation Yrotation
                    End Site
                    {
                        OFFSET -0.000000 0.000000 3.529846
                    }
                }
            }
        }
    }
    JOINT RightUpLeg
    {
        OFFSET -8.824615 0.000000 0.000000
        CHANNELS 3 Zrotation Xrotation Yrotation
        JOINT RightLeg
        {
            OFFSET -0.000000 -35.111282 0.000000
            CHANNELS 3 Zrotation Xrotation Yrotation
            JOINT RightFoot
            {
                OFFSET -0.000000 -42.324711 0.000000
                CHANNELS 3 Zrotation Xrotation Yrotation
                JOINT RightToeBase
                {
                    OFFSET -0.000000 -5.735999 13.236923
                    CHANNELS 3 Zrotation Xrotation Yrotation
                    End Site
                    {
                        OFFSET -0.000000 0.000000 3.529846
                    }
                }
            }
        }
    }
}
MOTION
Frames:    4
Frame Time:    0.008333
-1.221375    81.014481    96.155724    -0.239972    -5.638203    -178.634827    -1.194203    -15.955784    0.318612    0.934632    8.067876    0.420236    2.837892    5.157837    -0.665403    3.664940    3.663273    -0.575332    0.768322    18.415508    -3.594631    -41.734371    48.158302    -42.587032    -2.729602    -5.357656    -17.900019    17.192509    -5.313087    3.139610    6.374871    19.744841    -2.926040    37.043198    45.805935    42.658302    1.231293    -6.212811    17.357185    -15.126391    -5.825673    -4.345433    3.839514    -3.587399    1.638565    -2.900474    6.705124    1.692939    -0.976446    -7.857126    -8.213033    0.079567    0.335585    -0.088144    -3.823452    -1.488330    3.321378    3.767380    3.103487    4.984056    -2.057677    -6.144103    -11.514734    -0.376233    0.115260    0.406861    
-1.219488    81.014740    96.155182    -0.238021    -5.642313    -178.635178    -1.195312    -15.953271    0.320593    0.930163    8.063581    0.422690    2.838136    5.152974    -0.662459    3.661035    3.668724    -0.573035    0.769074    18.412989    -3.595173    -41.737976    48.156883    -42.580574    -2.730835    -5.354801    -17.900887    17.194979    -5.310214    3.140717    6.374419    19.746672    -2.922809    37.041069    45.810715    42.660233    1.229924    -6.213454    17.355848    -15.125295    -5.826144    -4.345479    3.842939    -3.591778    1.639304    -2.900520    6.706323    1.690585    -0.976807    -7.857822    -8.210848    0.079153    0.334657    -0.087685    -3.820306    -1.491538    3.319422    3.767279    3.101892    4.982665    -2.056456    -6.143564    -11.511884    -0.378243    0.113183    0.409035    
-1.217641    81.014992    96.154678    -0.236127    -5.646246    -178.635620    -1.196309    -15.950504    0.322582    0.925502    8.059303    0.425094    2.838480    5.148300    -0.659550    3.657288    3.673894    -0.570744    0.769976    18.410572    -3.595638    -41.741295    48.155556    -42.574482    -2.732027    -5.352083    -17.901670    17.197378    -5.307492    3.141705    6.374202    19.748577    -2.919619    37.038830    45.815117    42.662163    1.228805    -6.214066    17.354603    -15.124312    -5.826613    -4.345325    3.846234    -3.595967    1.640029    -2.900516    6.707429    1.688601    -0.977106    -7.858443    -8.208941    0.078823    0.334073    -0.087320    -3.817288    -1.494580    3.317775    3.767359    3.100154    4.981247    -2.055970    -6.142926    -11.509274    -0.380147    0.111547    0.411096    
-1.215850    81.015228    96.154228    -0.234343    -5.650071    -178.636261    -1.197472    -15.947592    0.324541    0.921244    8.055076    0.427519    2.838557    5.143609    -0.656766    3.653554    3.678932    -0.568474    0.770597    18.408375    -3.596128    -41.744148    48.154255    -42.568768    -2.733230    -5.349584    -17.902536    17.199577    -5.304992    3.142678    6.373665    19.750280    -2.916552    37.037102    45.819408    42.663750    1.227938    -6.214702    17.353376    -15.123351    -5.827202    -4.344932    3.849412    -3.599872    1.640478    -2.900576    6.708283    1.687276    -0.977582    -7.858958    -8.207270    0.078586    0.333329    -0.087058    -3.814379    -1.497631    3.316369    3.767361    3.098660    4.979811    -2.055066    -6.142609    -11.506614    -0.381839    0.110012    0.412926    
